<svg width="22" height="22" viewBox="0 0 22 22" fill="none" xmlns="http://www.w3.org/2000/svg">
<path d="M5.5 9.16665V7.33331C5.5 4.29915 6.41667 1.83331 11 1.83331C15.5833 1.83331 16.5 4.29915 16.5 7.33331V9.16665" stroke="#6F6F73" stroke-width="1.375" stroke-linecap="round" stroke-linejoin="round"/>
<path d="M11.0002 16.9583C12.2658 16.9583 13.2918 15.9323 13.2918 14.6667C13.2918 13.401 12.2658 12.375 11.0002 12.375C9.73451 12.375 8.7085 13.401 8.7085 14.6667C8.7085 15.9323 9.73451 16.9583 11.0002 16.9583Z" stroke="#6F6F73" stroke-width="1.375" stroke-linecap="round" stroke-linejoin="round"/>
<path d="M15.5835 20.1667H6.41683C2.75016 20.1667 1.8335 19.25 1.8335 15.5834V13.75C1.8335 10.0834 2.75016 9.16669 6.41683 9.16669H15.5835C19.2502 9.16669 20.1668 10.0834 20.1668 13.75V15.5834C20.1668 19.25 19.2502 20.1667 15.5835 20.1667Z" stroke="#6F6F73" stroke-width="1.375" stroke-linecap="round" stroke-linejoin="round"/>
</svg>
