<svg width="24" height="24" viewBox="0 0 24 24" fill="none" xmlns="http://www.w3.org/2000/svg">
<path d="M12 15C13.6569 15 15 13.6569 15 12C15 10.3431 13.6569 9 12 9C10.3431 9 9 10.3431 9 12C9 13.6569 10.3431 15 12 15Z" stroke="#292D32" stroke-width="1.5" stroke-miterlimit="10" stroke-linecap="round" stroke-linejoin="round"/>
<path d="M1.99951 12.8801V11.1201C1.99951 10.0801 2.84951 9.22006 3.89951 9.22006C5.70951 9.22006 6.44951 7.94006 5.53951 6.37006C5.01951 5.47006 5.32951 4.30006 6.23951 3.78006L7.96951 2.79006C8.75951 2.32006 9.77951 2.60006 10.2495 3.39006L10.3595 3.58006C11.2595 5.15006 12.7395 5.15006 13.6495 3.58006L13.7595 3.39006C14.2295 2.60006 15.2495 2.32006 16.0395 2.79006L17.7695 3.78006C18.6795 4.30006 18.9895 5.47006 18.4695 6.37006C17.5595 7.94006 18.2995 9.22006 20.1095 9.22006C21.1495 9.22006 22.0095 10.0701 22.0095 11.1201V12.8801C22.0095 13.9201 21.1595 14.7801 20.1095 14.7801C18.2995 14.7801 17.5595 16.0601 18.4695 17.6301C18.9895 18.5401 18.6795 19.7001 17.7695 20.2201L16.0395 21.2101C15.2495 21.6801 14.2295 21.4001 13.7595 20.6101L13.6495 20.4201C12.7495 18.8501 11.2695 18.8501 10.3595 20.4201L10.2495 20.6101C9.77951 21.4001 8.75951 21.6801 7.96951 21.2101L6.23951 20.2201C5.32951 19.7001 5.01951 18.5301 5.53951 17.6301C6.44951 16.0601 5.70951 14.7801 3.89951 14.7801C2.84951 14.7801 1.99951 13.9201 1.99951 12.8801Z" stroke="#292D32" stroke-width="1.5" stroke-miterlimit="10" stroke-linecap="round" stroke-linejoin="round"/>
</svg>
