<svg width="28" height="28" viewBox="0 0 28 28" fill="none" xmlns="http://www.w3.org/2000/svg">
<path d="M0 24C0 12.6863 0 7.02944 3.51472 3.51472C7.02944 0 12.6863 0 24 0H28V12C28 19.5425 28 23.3137 25.6569 25.6569C23.3137 28 19.5425 28 12 28H0V24Z" fill="#F7F6FC"/>
<path fill-rule="evenodd" clip-rule="evenodd" d="M17.9415 9.51702C17.9726 9.5714 18.0271 9.61025 18.0971 9.61025C19.9637 9.61025 21.4882 11.133 21.4882 12.9976V17.6125C21.4882 19.4771 19.9637 20.9998 18.0971 20.9998H9.32373C7.44928 20.9998 5.93262 19.4771 5.93262 17.6125V12.9976C5.93262 11.133 7.44928 9.61025 9.32373 9.61025C9.38595 9.61025 9.44817 9.57917 9.47151 9.51702L9.51817 9.42379C9.54499 9.36735 9.57251 9.30938 9.60045 9.25053C9.79942 8.83143 10.0195 8.36777 10.156 8.09527C10.5137 7.39604 11.1204 7.00759 11.8748 6.99982H15.5382C16.2926 7.00759 16.9071 7.39604 17.2648 8.09527C17.3873 8.34 17.574 8.73422 17.7539 9.11417C17.791 9.19257 17.8278 9.27035 17.8637 9.3461L17.9415 9.51702ZM17.376 12.5005C17.376 12.889 17.6871 13.1997 18.076 13.1997C18.4649 13.1997 18.7838 12.889 18.7838 12.5005C18.7838 12.1121 18.4649 11.7935 18.076 11.7935C17.6871 11.7935 17.376 12.1121 17.376 12.5005ZM12.3656 13.7051C12.7311 13.34 13.2056 13.1458 13.7111 13.1458C14.2167 13.1458 14.6911 13.34 15.0489 13.6974C15.4067 14.0547 15.6011 14.5287 15.6011 15.0337C15.5934 16.0747 14.7534 16.9216 13.7111 16.9216C13.2056 16.9216 12.7311 16.7273 12.3734 16.3699C12.0156 16.0126 11.8211 15.5386 11.8211 15.0337V15.0259C11.8134 14.5364 12.0078 14.0625 12.3656 13.7051ZM15.8658 17.1931C15.3136 17.7447 14.5513 18.0866 13.7113 18.0866C12.8947 18.0866 12.1325 17.768 11.5491 17.1931C10.9736 16.6104 10.6547 15.849 10.6547 15.0333C10.6469 14.2253 10.9658 13.4639 11.5413 12.8812C12.1247 12.2985 12.8947 11.98 13.7113 11.98C14.528 11.98 15.298 12.2985 15.8736 12.8735C16.4491 13.4561 16.768 14.2253 16.768 15.0333C16.7602 15.8801 16.418 16.6415 15.8658 17.1931Z" fill="#794098"/>
</svg>
